<svg width="350" height="269" viewBox="0 0 350 269" fill="none" xmlns="http://www.w3.org/2000/svg">
<path d="M254.546 66.6211L259.407 72.1913L264.269 76.3689L265.658 81.2428L269.131 85.4204H276.076L286.494 88.9018L297.606 95.1683H305.94L312.885 99.3459L326.776 93.7757L335.804 91.6869L341.36 86.813V95.8645L349 104.22L344.833 111.879L339.971 118.842L335.804 123.715L333.026 134.856L326.081 139.033L330.248 148.085L314.969 159.225L303.162 168.277L297.606 173.847H289.966L288.577 186.38L278.854 190.558H271.214L267.047 198.913L265.658 202.394L260.102 193.343L239.961 172.454L228.849 156.44L234.405 109.79L232.321 95.1683L236.488 77.0652L244.823 68.0136L254.546 66.6211Z" fill="white" stroke="#DBDBDB" stroke-miterlimit="10"/>
<path d="M140.417 110.03C141.962 107.366 141.715 103.649 138.75 99.4988C138.132 98.8793 136.279 97.6404 135.043 98.2598C135.043 96.4014 135.661 94.5429 135.043 93.9234C133.808 92.6844 131.337 93.9234 129.484 93.3039C126.395 91.4455 122.689 90.2065 118.983 88.348C116.512 87.109 116.512 84.0116 117.13 80.9141C118.365 82.1531 119.601 82.1531 121.454 82.1531C121.454 80.9141 122.689 79.6752 122.071 79.0557C119.415 76.8255 118.983 74.0378 118.921 71.0023L114.041 69.7633L103.54 64.8074L99.2161 61.71L83.1557 64.1879L70.1837 61.71L59.6826 74.0998L47.9461 82.7726L46.093 88.348L42.3867 97.0209L42.1396 97.7643C48.8109 99.6227 54.2468 102.472 59.6826 105.694C67.0952 109.411 76.9786 95.1624 88.0973 100.738C88.7151 98.8793 91.1859 98.2598 91.1859 98.8793C92.4213 103.216 91.1859 109.411 95.5099 110.65C101.069 111.889 109.717 108.172 112.188 113.128C114.659 117.464 117.13 120.561 121.454 122.42C122.566 122.916 123.739 122.854 124.789 122.482" fill="#FFB716"/>
<path d="M140.417 110.03C141.962 107.366 141.715 103.649 138.75 99.4988C138.132 98.8793 136.279 97.6404 135.043 98.2598C135.043 96.4014 135.661 94.5429 135.043 93.9234C133.808 92.6844 131.337 93.9234 129.484 93.3039C126.395 91.4455 122.689 90.2065 118.983 88.348C116.512 87.109 116.512 84.0116 117.13 80.9141C118.365 82.1531 119.601 82.1531 121.454 82.1531C121.454 80.9141 122.689 79.6752 122.071 79.0557C119.415 76.8255 118.983 74.0378 118.921 71.0023L114.041 69.7633L103.54 64.8074L99.2161 61.71L83.1557 64.1879L70.1837 61.71L59.6826 74.0998L47.9461 82.7726L46.093 88.348L42.3867 97.0209L42.1396 97.7643C48.8109 99.6227 54.2468 102.472 59.6826 105.694C67.0952 109.411 76.9786 95.1624 88.0973 100.738C88.7151 98.8793 91.1859 98.2598 91.1859 98.8793C92.4213 103.216 91.1859 109.411 95.5099 110.65C101.069 111.889 109.717 108.172 112.188 113.128C114.659 117.464 117.13 120.561 121.454 122.42C122.566 122.916 123.739 122.854 124.789 122.482" stroke="#DBDBDB" stroke-miterlimit="10"/>
<path d="M267.851 36.3109L276.499 37.5499V34.4524L269.086 25.7796V17.7262L260.438 14.0093L257.967 15.2483L248.084 14.0093L241.289 6.57541L235.112 1L219.052 2.85847L204.227 1L202.991 8.43387L203.609 17.1067L201.138 17.7262L196.814 15.2483L190.019 18.9652L178.283 18.3457L176.43 23.9211L170.87 22.6821L162.222 28.877L165.928 32.594L160.987 34.4524L153.574 33.8329L151.103 41.8863L146.162 48.0812L140.602 48.7007H135.043V53.0371L134.425 59.8515L131.954 71.0023L127.013 74.0998L118.982 71.0023H118.921C118.982 74.0378 119.415 76.8875 122.071 79.0557C122.689 79.6752 121.453 80.9141 121.453 82.1531C119.6 82.1531 118.365 82.1531 117.129 80.9141C116.512 84.0116 116.512 87.109 118.982 88.348C122.689 90.2065 126.395 91.4455 129.484 93.3039C131.337 93.9234 133.808 92.6844 135.043 93.9234C135.661 94.5429 135.043 96.4014 135.043 98.2599C136.278 97.6404 138.131 98.8793 138.749 99.4988C141.714 103.649 141.961 107.366 140.417 110.03C145.853 109.163 151.042 108.543 156.663 107.552C154.254 100.862 156.601 97.7643 163.149 97.6404C162.84 97.6404 162.84 97.5165 162.84 97.0209C162.963 97.2067 163.025 97.4545 163.149 97.6404C163.211 97.6404 163.334 97.6404 163.458 97.6404C163.334 97.6404 163.272 97.6404 163.149 97.6404C163.705 98.6315 164.261 99.3749 165.311 98.8793C169.017 95.7819 163.458 91.4455 164.693 89.587C170.252 82.1531 178.283 71.0023 186.313 72.2413C190.019 72.8608 193.725 87.7285 196.196 79.0557C198.049 73.4803 195.579 67.9049 204.227 69.1438C204.227 67.2854 204.844 64.8074 205.462 62.9489C206.697 61.71 208.551 63.5684 210.404 62.9489C211.639 66.0464 212.875 69.1438 215.963 69.7633C222.14 71.0023 230.17 77.1972 233.259 71.0023C239.56 58.3647 250.678 43.5589 264.639 42.0102L264.762 40.6473L267.851 36.3109Z" fill="white" stroke="#DBDBDB" stroke-miterlimit="10"/>
<path d="M153.698 174.024C156.786 173.59 159.751 172.041 162.222 169.563C163.458 168.944 165.311 168.944 166.546 169.563C172.106 174.519 175.812 185.05 181.371 178.856C186.313 173.28 193.726 168.944 200.52 163.988C202.991 162.129 204.844 166.466 206.08 166.466C215.963 167.705 224.611 160.271 233.877 160.89C236.842 161.324 240.177 161.758 243.328 162.191L245.613 160.271L244.378 150.979L249.937 149.74L259.203 142.925L266.615 144.164L270.322 142.925L259.821 136.111L248.702 123.721L244.378 112.57L245.613 99.5609L249.32 92.127L256.114 84.0737L261.056 80.3567V75.4008L265.38 71.6839L257.35 61.772L257.967 55.5771L261.056 54.9576L264.145 46.2848L264.639 42.0723C250.74 43.621 239.621 58.4268 233.259 71.0644C230.17 77.2593 222.14 71.0644 215.963 69.8254C212.875 69.2059 211.639 66.1085 210.404 63.011C208.551 63.6305 206.697 61.772 205.462 63.011C204.844 64.8695 204.227 67.3474 204.227 69.2059C195.579 67.9669 198.05 73.5423 196.196 79.1177C193.726 87.7906 190.019 72.9228 186.313 72.3033C178.283 71.0644 170.253 82.2152 164.693 89.6491C163.458 91.5075 169.017 95.844 165.311 98.9414C164.261 99.437 163.705 98.6936 163.149 97.7024C156.601 97.7644 154.192 100.924 156.663 107.614C151.042 108.605 145.915 109.225 140.417 110.092C138.749 113.004 134.92 114.738 130.101 114.429C130.101 117.65 127.754 121.491 124.789 122.544C127.322 125.208 128.989 128.181 129.484 131.155C129.484 136.111 125.16 142.306 127.631 146.642C130.101 149.74 135.043 147.881 138.749 150.979C134.425 153.456 130.101 161.51 133.808 162.749C141.22 164.607 149.868 166.466 148.633 172.041C148.509 172.599 148.324 173.156 148.139 173.714C149.992 174.147 151.907 174.271 153.698 174.024Z" fill="white" stroke="#DBDBDB" stroke-miterlimit="10"/>
<path d="M267.233 198.618V188.706L261.674 183.75L253.026 177.555L249.937 168.882L244.378 167.024L241.907 163.307L243.328 162.13C240.177 161.696 236.842 161.262 233.877 160.829C224.611 160.209 215.963 167.643 206.08 166.404C204.844 166.404 202.991 162.068 200.52 163.926C193.726 168.882 186.313 173.219 181.371 178.794C175.812 184.989 172.106 174.458 166.546 169.502C165.311 168.882 163.458 168.882 162.222 169.502C159.752 171.98 156.787 173.528 153.698 173.962C155.119 178.112 157.651 181.829 155.428 184.989C152.957 188.086 147.397 189.325 144.927 192.423C140.603 196.759 146.162 198.618 150.486 199.857C146.78 208.529 150.486 213.485 159.752 216.583C160.369 217.202 159.134 220.919 157.898 220.919C154.81 220.919 151.721 221.539 148.633 220.919C148.633 224.636 147.397 229.592 150.486 231.451C152.339 233.309 156.663 235.167 154.81 237.026C150.733 241.92 151.227 247.371 151.66 252.699L163.458 261.806L166.546 268L171.488 262.425V258.089H178.283L187.549 261.806L193.108 264.903L205.462 256.23L220.287 259.328L225.229 250.655L232.024 249.416L236.348 246.938H244.996L248.702 238.265V234.548L240.054 232.69V230.831L250.555 222.158L253.026 212.866H263.527L270.322 208.529V202.335L267.233 198.618Z" fill="white" stroke="#DBDBDB" stroke-miterlimit="10"/>
<path d="M154.81 237.026C156.663 235.167 152.339 233.309 150.486 231.45C147.397 229.592 148.633 224.636 148.633 220.919C151.721 221.538 154.81 220.919 157.899 220.919C159.134 220.919 160.369 217.202 159.752 216.583C150.486 213.485 146.78 208.529 150.486 199.856C146.162 198.617 140.603 196.759 144.927 192.422C147.397 189.325 152.957 188.086 155.428 184.989C157.651 181.891 155.119 178.112 153.698 173.962C151.907 174.209 149.992 174.148 148.139 173.59C142.147 190.998 117.315 178.546 103.54 172.537C100.451 171.298 96.1275 175.015 92.4212 173.156C79.5728 166.094 70.5542 154.076 56.5322 149.12L51.9611 151.164L42.0778 157.979V164.793L40.2246 177.183L39.6069 183.997L34.0475 182.758L28.4881 183.378L22.9287 189.573V196.387L17.987 201.963L12.4277 205.06L6.25054 209.396L1 212.866V217.202L5.32398 222.158H15.8251L31.8855 217.822L38.0626 222.158V230.831L41.7689 232.689H52.27H57.8294H62.1534L68.9482 230.831L71.419 227.733L66.4773 227.114L71.419 220.299L76.3607 222.777L82.5378 232.689L104.158 234.548L107.246 231.45L114.041 230.211V238.265L109.717 240.743L111.57 243.221L115.894 241.982V248.177H135.661L141.22 254.371L149.868 251.274L151.66 252.699C151.227 247.433 150.733 241.92 154.81 237.026Z" fill="white" stroke="#DBDBDB" stroke-miterlimit="10"/>
<path d="M148.138 173.652C148.324 173.156 148.509 172.599 148.632 171.979C149.868 166.404 141.22 164.546 133.807 162.687C130.101 161.448 134.425 153.395 138.749 150.917C135.043 147.819 130.101 149.678 127.63 146.58C125.159 142.244 129.483 136.049 129.483 131.093C128.989 128.12 127.321 125.146 124.789 122.482C123.739 122.854 122.627 122.854 121.453 122.42C117.129 120.562 114.658 117.464 112.188 113.128C109.717 108.172 101.069 111.889 95.5093 110.65C91.1854 109.411 92.4208 103.216 91.1854 98.8797C91.1854 98.2602 88.7145 98.8797 88.0968 100.738C76.978 95.1628 67.0946 109.411 59.6821 105.694C54.2463 102.411 48.8104 99.6231 42.1391 97.7646L38.3711 107.862L43.9305 113.438L46.4013 121.491V129.544L51.343 130.783L57.5201 138.837V148.749L56.5318 149.182C70.5538 154.138 79.5724 166.156 92.4208 173.218C96.1271 175.077 100.451 171.36 103.54 172.599C117.315 178.608 142.208 191.06 148.138 173.652Z" fill="#FFB716" stroke="#DBDBDB" stroke-miterlimit="10"/>
<ellipse cx="113.818" cy="238.004" rx="2.49311" ry="2.48886" fill="black"/>
<path d="M100.63 217.36V224.36H99.9196V218.76L97.1696 223.47H96.8196L94.0696 218.79V224.36H93.3596V217.36H93.9696L97.0096 222.55L100.02 217.36H100.63ZM104.6 219.06C105.287 219.06 105.814 219.234 106.18 219.58C106.547 219.92 106.73 220.427 106.73 221.1V224.36H106.05V223.54C105.89 223.814 105.654 224.027 105.34 224.18C105.034 224.334 104.667 224.41 104.24 224.41C103.654 224.41 103.187 224.27 102.84 223.99C102.494 223.71 102.32 223.34 102.32 222.88C102.32 222.434 102.48 222.074 102.8 221.8C103.127 221.527 103.644 221.39 104.35 221.39H106.02V221.07C106.02 220.617 105.894 220.274 105.64 220.04C105.387 219.8 105.017 219.68 104.53 219.68C104.197 219.68 103.877 219.737 103.57 219.85C103.264 219.957 103 220.107 102.78 220.3L102.46 219.77C102.727 219.544 103.047 219.37 103.42 219.25C103.794 219.124 104.187 219.06 104.6 219.06ZM104.35 223.85C104.75 223.85 105.094 223.76 105.38 223.58C105.667 223.394 105.88 223.127 106.02 222.78V221.92H104.37C103.47 221.92 103.02 222.234 103.02 222.86C103.02 223.167 103.137 223.41 103.37 223.59C103.604 223.764 103.93 223.85 104.35 223.85ZM109.339 220.13C109.505 219.777 109.752 219.51 110.079 219.33C110.412 219.15 110.822 219.06 111.309 219.06V219.75L111.139 219.74C110.585 219.74 110.152 219.91 109.839 220.25C109.525 220.59 109.369 221.067 109.369 221.68V224.36H108.659V219.1H109.339V220.13ZM114.043 224.41C113.617 224.41 113.207 224.35 112.813 224.23C112.427 224.104 112.123 223.947 111.903 223.76L112.223 223.2C112.443 223.374 112.72 223.517 113.053 223.63C113.387 223.737 113.733 223.79 114.093 223.79C114.573 223.79 114.927 223.717 115.153 223.57C115.387 223.417 115.503 223.204 115.503 222.93C115.503 222.737 115.44 222.587 115.313 222.48C115.187 222.367 115.027 222.284 114.833 222.23C114.64 222.17 114.383 222.114 114.063 222.06C113.637 221.98 113.293 221.9 113.033 221.82C112.773 221.734 112.55 221.59 112.363 221.39C112.183 221.19 112.093 220.914 112.093 220.56C112.093 220.12 112.277 219.76 112.643 219.48C113.01 219.2 113.52 219.06 114.173 219.06C114.513 219.06 114.853 219.107 115.193 219.2C115.533 219.287 115.813 219.404 116.033 219.55L115.723 220.12C115.29 219.82 114.773 219.67 114.173 219.67C113.72 219.67 113.377 219.75 113.143 219.91C112.917 220.07 112.803 220.28 112.803 220.54C112.803 220.74 112.867 220.9 112.993 221.02C113.127 221.14 113.29 221.23 113.483 221.29C113.677 221.344 113.943 221.4 114.283 221.46C114.703 221.54 115.04 221.62 115.293 221.7C115.547 221.78 115.763 221.917 115.943 222.11C116.123 222.304 116.213 222.57 116.213 222.91C116.213 223.37 116.02 223.737 115.633 224.01C115.253 224.277 114.723 224.41 114.043 224.41ZM122.106 221.95H117.706C117.746 222.497 117.956 222.94 118.336 223.28C118.716 223.614 119.196 223.78 119.776 223.78C120.103 223.78 120.403 223.724 120.676 223.61C120.949 223.49 121.186 223.317 121.386 223.09L121.786 223.55C121.553 223.83 121.259 224.044 120.906 224.19C120.559 224.337 120.176 224.41 119.756 224.41C119.216 224.41 118.736 224.297 118.316 224.07C117.903 223.837 117.579 223.517 117.346 223.11C117.113 222.704 116.996 222.244 116.996 221.73C116.996 221.217 117.106 220.757 117.326 220.35C117.553 219.944 117.859 219.627 118.246 219.4C118.639 219.174 119.079 219.06 119.566 219.06C120.053 219.06 120.489 219.174 120.876 219.4C121.263 219.627 121.566 219.944 121.786 220.35C122.006 220.75 122.116 221.21 122.116 221.73L122.106 221.95ZM119.566 219.67C119.059 219.67 118.633 219.834 118.286 220.16C117.946 220.48 117.753 220.9 117.706 221.42H121.436C121.389 220.9 121.193 220.48 120.846 220.16C120.506 219.834 120.079 219.67 119.566 219.67ZM123.561 219.1H124.271V224.36H123.561V219.1ZM123.921 217.95C123.774 217.95 123.651 217.9 123.551 217.8C123.451 217.7 123.401 217.58 123.401 217.44C123.401 217.307 123.451 217.19 123.551 217.09C123.651 216.99 123.774 216.94 123.921 216.94C124.068 216.94 124.191 216.99 124.291 217.09C124.391 217.184 124.441 217.297 124.441 217.43C124.441 217.577 124.391 217.7 124.291 217.8C124.191 217.9 124.068 217.95 123.921 217.95ZM126.247 216.94H126.957V224.36H126.247V216.94ZM128.932 216.94H129.642V224.36H128.932V216.94ZM136.198 221.95H131.798C131.838 222.497 132.048 222.94 132.428 223.28C132.808 223.614 133.288 223.78 133.868 223.78C134.194 223.78 134.494 223.724 134.768 223.61C135.041 223.49 135.278 223.317 135.478 223.09L135.878 223.55C135.644 223.83 135.351 224.044 134.998 224.19C134.651 224.337 134.268 224.41 133.848 224.41C133.308 224.41 132.828 224.297 132.408 224.07C131.994 223.837 131.671 223.517 131.438 223.11C131.204 222.704 131.088 222.244 131.088 221.73C131.088 221.217 131.198 220.757 131.418 220.35C131.644 219.944 131.951 219.627 132.338 219.4C132.731 219.174 133.171 219.06 133.658 219.06C134.144 219.06 134.581 219.174 134.968 219.4C135.354 219.627 135.658 219.944 135.878 220.35C136.098 220.75 136.208 221.21 136.208 221.73L136.198 221.95ZM133.658 219.67C133.151 219.67 132.724 219.834 132.378 220.16C132.038 220.48 131.844 220.9 131.798 221.42H135.528C135.481 220.9 135.284 220.48 134.938 220.16C134.598 219.834 134.171 219.67 133.658 219.67Z" fill="black"/>
<ellipse cx="57.7236" cy="149.65" rx="2.4931" ry="2.48885" fill="black"/>
<path d="M43.0318 134.136H39.1318L38.2918 136.006H37.5218L40.7218 129.006H41.4518L44.6518 136.006H43.8718L43.0318 134.136ZM42.7618 133.536L41.0818 129.776L39.4018 133.536H42.7618ZM49.8161 130.746L47.4761 136.006H46.7461L44.4161 130.746H45.1561L47.1261 135.226L49.1161 130.746H49.8161ZM50.816 130.746H51.526V136.006H50.816V130.746ZM51.176 129.596C51.0294 129.596 50.906 129.546 50.806 129.446C50.706 129.346 50.656 129.226 50.656 129.086C50.656 128.953 50.706 128.836 50.806 128.736C50.906 128.636 51.0294 128.586 51.176 128.586C51.3227 128.586 51.446 128.636 51.546 128.736C51.646 128.829 51.696 128.943 51.696 129.076C51.696 129.223 51.646 129.346 51.546 129.446C51.446 129.546 51.3227 129.596 51.176 129.596ZM58.3716 130.746V135.366C58.3716 136.259 58.1516 136.919 57.7116 137.346C57.2782 137.779 56.6216 137.996 55.7416 137.996C55.2549 137.996 54.7916 137.923 54.3516 137.776C53.9182 137.636 53.5649 137.439 53.2916 137.186L53.6516 136.646C53.9049 136.873 54.2116 137.049 54.5716 137.176C54.9382 137.303 55.3216 137.366 55.7216 137.366C56.3882 137.366 56.8782 137.209 57.1916 136.896C57.5049 136.589 57.6616 136.109 57.6616 135.456V134.786C57.4416 135.119 57.1516 135.373 56.7916 135.546C56.4382 135.719 56.0449 135.806 55.6116 135.806C55.1182 135.806 54.6682 135.699 54.2616 135.486C53.8616 135.266 53.5449 134.963 53.3116 134.576C53.0849 134.183 52.9716 133.739 52.9716 133.246C52.9716 132.753 53.0849 132.313 53.3116 131.926C53.5449 131.539 53.8616 131.239 54.2616 131.026C54.6616 130.813 55.1116 130.706 55.6116 130.706C56.0582 130.706 56.4616 130.796 56.8216 130.976C57.1816 131.156 57.4716 131.416 57.6916 131.756V130.746H58.3716ZM55.6816 135.176C56.0616 135.176 56.4049 135.096 56.7116 134.936C57.0182 134.769 57.2549 134.539 57.4216 134.246C57.5949 133.953 57.6816 133.619 57.6816 133.246C57.6816 132.873 57.5949 132.543 57.4216 132.256C57.2549 131.963 57.0182 131.736 56.7116 131.576C56.4116 131.409 56.0682 131.326 55.6816 131.326C55.3016 131.326 54.9582 131.406 54.6516 131.566C54.3516 131.726 54.1149 131.953 53.9416 132.246C53.7749 132.539 53.6916 132.873 53.6916 133.246C53.6916 133.619 53.7749 133.953 53.9416 134.246C54.1149 134.539 54.3516 134.769 54.6516 134.936C54.9582 135.096 55.3016 135.176 55.6816 135.176ZM63.0371 130.706C63.6971 130.706 64.2204 130.899 64.6071 131.286C65.0004 131.666 65.1971 132.223 65.1971 132.956V136.006H64.4871V133.026C64.4871 132.479 64.3504 132.063 64.0771 131.776C63.8037 131.489 63.4137 131.346 62.9071 131.346C62.3404 131.346 61.8904 131.516 61.5571 131.856C61.2304 132.189 61.0671 132.653 61.0671 133.246V136.006H60.3571V130.746H61.0371V131.716C61.2304 131.396 61.4971 131.149 61.8371 130.976C62.1837 130.796 62.5837 130.706 63.0371 130.706ZM69.2942 136.056C68.7875 136.056 68.3308 135.943 67.9242 135.716C67.5175 135.483 67.1975 135.163 66.9642 134.756C66.7308 134.349 66.6142 133.889 66.6142 133.376C66.6142 132.863 66.7308 132.403 66.9642 131.996C67.1975 131.589 67.5175 131.273 67.9242 131.046C68.3308 130.819 68.7875 130.706 69.2942 130.706C69.8008 130.706 70.2575 130.819 70.6642 131.046C71.0708 131.273 71.3875 131.589 71.6142 131.996C71.8475 132.403 71.9642 132.863 71.9642 133.376C71.9642 133.889 71.8475 134.349 71.6142 134.756C71.3875 135.163 71.0708 135.483 70.6642 135.716C70.2575 135.943 69.8008 136.056 69.2942 136.056ZM69.2942 135.426C69.6675 135.426 70.0008 135.343 70.2942 135.176C70.5942 135.003 70.8275 134.759 70.9942 134.446C71.1608 134.133 71.2442 133.776 71.2442 133.376C71.2442 132.976 71.1608 132.619 70.9942 132.306C70.8275 131.993 70.5942 131.753 70.2942 131.586C70.0008 131.413 69.6675 131.326 69.2942 131.326C68.9208 131.326 68.5842 131.413 68.2842 131.586C67.9908 131.753 67.7575 131.993 67.5842 132.306C67.4175 132.619 67.3342 132.976 67.3342 133.376C67.3342 133.776 67.4175 134.133 67.5842 134.446C67.7575 134.759 67.9908 135.003 68.2842 135.176C68.5842 135.343 68.9208 135.426 69.2942 135.426ZM76.0937 130.706C76.7537 130.706 77.277 130.899 77.6637 131.286C78.057 131.666 78.2537 132.223 78.2537 132.956V136.006H77.5437V133.026C77.5437 132.479 77.407 132.063 77.1337 131.776C76.8604 131.489 76.4704 131.346 75.9637 131.346C75.397 131.346 74.947 131.516 74.6137 131.856C74.287 132.189 74.1237 132.653 74.1237 133.246V136.006H73.4137V130.746H74.0937V131.716C74.287 131.396 74.5537 131.149 74.8937 130.976C75.2404 130.796 75.6404 130.706 76.0937 130.706Z" fill="black"/>
<ellipse cx="247.199" cy="235.515" rx="2.4931" ry="2.48885" fill="black"/>
<path d="M227.269 221.931C226.749 221.931 226.249 221.848 225.769 221.681C225.296 221.514 224.929 221.294 224.669 221.021L224.959 220.451C225.212 220.704 225.549 220.911 225.969 221.071C226.389 221.224 226.822 221.301 227.269 221.301C227.896 221.301 228.366 221.188 228.679 220.961C228.992 220.728 229.149 220.428 229.149 220.061C229.149 219.781 229.062 219.558 228.889 219.391C228.722 219.224 228.516 219.098 228.269 219.011C228.022 218.918 227.679 218.818 227.239 218.711C226.712 218.578 226.292 218.451 225.979 218.331C225.666 218.204 225.396 218.014 225.169 217.761C224.949 217.508 224.839 217.164 224.839 216.731C224.839 216.378 224.932 216.058 225.119 215.771C225.306 215.478 225.592 215.244 225.979 215.071C226.366 214.898 226.846 214.811 227.419 214.811C227.819 214.811 228.209 214.868 228.589 214.981C228.976 215.088 229.309 215.238 229.589 215.431L229.339 216.021C229.046 215.828 228.732 215.684 228.399 215.591C228.066 215.491 227.739 215.441 227.419 215.441C226.806 215.441 226.342 215.561 226.029 215.801C225.722 216.034 225.569 216.338 225.569 216.711C225.569 216.991 225.652 217.218 225.819 217.391C225.992 217.558 226.206 217.688 226.459 217.781C226.719 217.868 227.066 217.964 227.499 218.071C228.012 218.198 228.426 218.324 228.739 218.451C229.059 218.571 229.329 218.758 229.549 219.011C229.769 219.258 229.879 219.594 229.879 220.021C229.879 220.374 229.782 220.698 229.589 220.991C229.402 221.278 229.112 221.508 228.719 221.681C228.326 221.848 227.842 221.931 227.269 221.931ZM234.111 221.551C233.978 221.671 233.811 221.764 233.611 221.831C233.418 221.891 233.215 221.921 233.001 221.921C232.508 221.921 232.128 221.788 231.861 221.521C231.595 221.254 231.461 220.878 231.461 220.391V217.211H230.521V216.611H231.461V215.461H232.171V216.611H233.771V217.211H232.171V220.351C232.171 220.664 232.248 220.904 232.401 221.071C232.561 221.231 232.788 221.311 233.081 221.311C233.228 221.311 233.368 221.288 233.501 221.241C233.641 221.194 233.761 221.128 233.861 221.041L234.111 221.551ZM234.916 218.851H237.536V219.471H234.916V218.851ZM240.312 215.511H237.852V214.871H243.512V215.511H241.052V221.871H240.312V215.511ZM245.088 217.641C245.254 217.288 245.501 217.021 245.828 216.841C246.161 216.661 246.571 216.571 247.058 216.571V217.261L246.888 217.251C246.334 217.251 245.901 217.421 245.588 217.761C245.274 218.101 245.118 218.578 245.118 219.191V221.871H244.408V216.611H245.088V217.641ZM250.445 221.921C249.938 221.921 249.481 221.808 249.075 221.581C248.668 221.348 248.348 221.028 248.115 220.621C247.881 220.214 247.765 219.754 247.765 219.241C247.765 218.728 247.881 218.268 248.115 217.861C248.348 217.454 248.668 217.138 249.075 216.911C249.481 216.684 249.938 216.571 250.445 216.571C250.951 216.571 251.408 216.684 251.815 216.911C252.221 217.138 252.538 217.454 252.765 217.861C252.998 218.268 253.115 218.728 253.115 219.241C253.115 219.754 252.998 220.214 252.765 220.621C252.538 221.028 252.221 221.348 251.815 221.581C251.408 221.808 250.951 221.921 250.445 221.921ZM250.445 221.291C250.818 221.291 251.151 221.208 251.445 221.041C251.745 220.868 251.978 220.624 252.145 220.311C252.311 219.998 252.395 219.641 252.395 219.241C252.395 218.841 252.311 218.484 252.145 218.171C251.978 217.858 251.745 217.618 251.445 217.451C251.151 217.278 250.818 217.191 250.445 217.191C250.071 217.191 249.735 217.278 249.435 217.451C249.141 217.618 248.908 217.858 248.735 218.171C248.568 218.484 248.485 218.841 248.485 219.241C248.485 219.641 248.568 219.998 248.735 220.311C248.908 220.624 249.141 220.868 249.435 221.041C249.735 221.208 250.071 221.291 250.445 221.291ZM257.274 216.571C257.767 216.571 258.214 216.684 258.614 216.911C259.014 217.131 259.327 217.444 259.554 217.851C259.781 218.258 259.894 218.721 259.894 219.241C259.894 219.768 259.781 220.234 259.554 220.641C259.327 221.048 259.014 221.364 258.614 221.591C258.221 221.811 257.774 221.921 257.274 221.921C256.847 221.921 256.461 221.834 256.114 221.661C255.774 221.481 255.494 221.221 255.274 220.881V223.811H254.564V216.611H255.244V217.651C255.457 217.304 255.737 217.038 256.084 216.851C256.437 216.664 256.834 216.571 257.274 216.571ZM257.224 221.291C257.591 221.291 257.924 221.208 258.224 221.041C258.524 220.868 258.757 220.624 258.924 220.311C259.097 219.998 259.184 219.641 259.184 219.241C259.184 218.841 259.097 218.488 258.924 218.181C258.757 217.868 258.524 217.624 258.224 217.451C257.924 217.278 257.591 217.191 257.224 217.191C256.851 217.191 256.514 217.278 256.214 217.451C255.921 217.624 255.687 217.868 255.514 218.181C255.347 218.488 255.264 218.841 255.264 219.241C255.264 219.641 255.347 219.998 255.514 220.311C255.687 220.624 255.921 220.868 256.214 221.041C256.514 221.208 256.851 221.291 257.224 221.291ZM265.921 219.461H261.521C261.561 220.008 261.771 220.451 262.151 220.791C262.531 221.124 263.011 221.291 263.591 221.291C263.918 221.291 264.218 221.234 264.491 221.121C264.765 221.001 265.001 220.828 265.201 220.601L265.601 221.061C265.368 221.341 265.075 221.554 264.721 221.701C264.375 221.848 263.991 221.921 263.571 221.921C263.031 221.921 262.551 221.808 262.131 221.581C261.718 221.348 261.395 221.028 261.161 220.621C260.928 220.214 260.811 219.754 260.811 219.241C260.811 218.728 260.921 218.268 261.141 217.861C261.368 217.454 261.675 217.138 262.061 216.911C262.455 216.684 262.895 216.571 263.381 216.571C263.868 216.571 264.305 216.684 264.691 216.911C265.078 217.138 265.381 217.454 265.601 217.861C265.821 218.261 265.931 218.721 265.931 219.241L265.921 219.461ZM263.381 217.181C262.875 217.181 262.448 217.344 262.101 217.671C261.761 217.991 261.568 218.411 261.521 218.931H265.251C265.205 218.411 265.008 217.991 264.661 217.671C264.321 217.344 263.895 217.181 263.381 217.181ZM271.038 221.281V221.871H266.758V221.401L270.068 217.211H266.818V216.611H270.978V217.081L267.668 221.281H271.038Z" fill="black"/>
</svg>
